<svg width="145" height="48" viewBox="0 0 145 48" fill="none" xmlns="http://www.w3.org/2000/svg">
<g clip-path="url(#clip0_11998_265999)">
<path d="M31.2295 22.932C31.2295 19.6451 33.9363 18.119 34.0539 18.0016C32.524 15.7711 30.1703 15.5364 29.3465 15.419C27.3459 15.1842 25.4628 16.5929 24.4037 16.5929C23.3445 16.5929 21.8147 15.419 20.1671 15.419C18.0488 15.419 16.0481 16.7103 14.8712 18.5885C12.6352 22.4625 14.2827 28.332 16.5188 31.5016C17.578 33.0277 18.8725 34.7885 20.5201 34.7885C22.1677 34.6711 22.7561 33.732 24.7567 33.732C26.7574 33.732 27.2282 34.7885 28.9935 34.7885C30.7587 34.7885 31.8179 33.2625 32.877 31.619C34.1716 29.8581 34.6424 28.0972 34.6424 27.9798C34.6424 28.0972 31.2295 26.8059 31.2295 22.932Z" fill="white"/>
<path d="M27.9339 13.4231C28.7577 12.3666 29.4638 10.8405 29.2285 9.31445C27.9339 9.31445 26.404 10.1362 25.4626 11.3101C24.6387 12.2492 23.9326 13.7753 24.168 15.3014C25.5802 15.3014 27.1101 14.4797 27.9339 13.4231Z" fill="white"/>
<path d="M51.8241 30.9158H46.2928L44.9982 34.9071H42.6445L47.9404 20.3506H50.2941L55.59 34.9071H53.2363L51.8241 30.9158ZM46.8812 29.1549H51.3533L49.1173 22.6984H48.9996L46.8812 29.1549Z" fill="white"/>
<path d="M67.0052 29.6242C67.0052 32.9111 65.24 35.0241 62.5332 35.0241C61.0032 35.0241 59.8264 34.3198 59.238 33.1459V38.4285H57.002V24.3415H59.1203V26.1024C59.7088 24.9285 61.0032 24.2241 62.5332 24.2241C65.1223 24.1068 67.0052 26.3372 67.0052 29.6242ZM64.6515 29.6242C64.6515 27.5111 63.5923 26.1024 61.8271 26.1024C60.1795 26.1024 59.0027 27.5111 59.0027 29.6242C59.0027 31.7372 60.1795 33.1459 61.8271 33.1459C63.5923 33.1459 64.6515 31.7372 64.6515 29.6242Z" fill="white"/>
<path d="M78.6566 29.6242C78.6566 32.9111 76.8914 35.0241 74.1846 35.0241C72.6546 35.0241 71.4778 34.3198 70.8894 33.1459V38.4285H68.6533V24.3415H70.7716V26.1024C71.3601 24.9285 72.6546 24.2241 74.1846 24.2241C76.8914 24.1068 78.6566 26.3372 78.6566 29.6242ZM76.4206 29.6242C76.4206 27.5111 75.3614 26.1024 73.5962 26.1024C71.9485 26.1024 70.7716 27.5111 70.7716 29.6242C70.7716 31.7372 71.9485 33.1459 73.5962 33.1459C75.3614 33.1459 76.4206 31.7372 76.4206 29.6242Z" fill="white"/>
<path d="M86.4236 30.7969C86.5412 32.2056 87.9534 33.1447 89.9541 33.1447C91.837 33.1447 93.1316 32.2056 93.1316 30.9143C93.1316 29.7403 92.3078 29.1534 90.4248 28.6838L88.5419 28.2143C85.8351 27.5099 84.6582 26.336 84.6582 24.3403C84.6582 21.8751 86.8943 20.1143 89.9541 20.1143C93.0139 20.1143 95.1322 21.8751 95.25 24.3403H93.0139C92.8963 22.9316 91.7193 21.9925 89.9541 21.9925C88.1888 21.9925 87.0119 22.9316 87.0119 24.223C87.0119 25.2795 87.8358 25.8664 89.7187 26.336L91.3663 26.6882C94.3085 27.3925 95.603 28.5664 95.603 30.6795C95.603 33.3795 93.367 35.1403 89.9541 35.1403C86.6589 35.1403 84.5406 33.4969 84.4229 30.7969H86.4236Z" fill="white"/>
<path d="M100.075 21.7588V24.224H102.076V25.9849H100.075V31.8544C100.075 32.7936 100.428 33.1457 101.37 33.1457C101.605 33.1457 101.958 33.1457 102.076 33.1457V34.9066C101.84 35.024 101.37 35.024 100.899 35.024C98.7805 35.024 97.9567 34.2023 97.9567 32.2066V26.1023H96.4268V24.3414H97.9567V21.8762H100.075V21.7588Z" fill="white"/>
<path d="M103.37 29.6236C103.37 26.3367 105.371 24.2236 108.431 24.2236C111.49 24.2236 113.491 26.3367 113.491 29.6236C113.491 33.028 111.49 35.0236 108.431 35.0236C105.253 35.0236 103.37 32.9106 103.37 29.6236ZM111.255 29.6236C111.255 27.2758 110.196 25.9845 108.431 25.9845C106.665 25.9845 105.606 27.2758 105.606 29.6236C105.606 31.9715 106.665 33.2628 108.431 33.2628C110.196 33.2628 111.255 31.8541 111.255 29.6236Z" fill="white"/>
<path d="M115.257 24.2236H117.375V26.1019C117.728 24.928 118.67 24.2236 119.964 24.2236C120.318 24.2236 120.552 24.2236 120.671 24.341V26.3367C120.552 26.2193 120.082 26.2193 119.729 26.2193C118.317 26.2193 117.493 27.1584 117.493 28.6845V35.0236H115.257V24.2236Z" fill="white"/>
<path d="M130.791 31.7359C130.556 33.6142 128.555 35.0229 126.201 35.0229C123.142 35.0229 121.142 32.9098 121.142 29.6229C121.142 26.3359 123.025 24.1055 126.084 24.1055C129.026 24.1055 130.909 26.1011 130.909 29.3881V30.0924H123.377V30.2098C123.377 31.9707 124.554 33.262 126.201 33.262C127.379 33.262 128.32 32.675 128.673 31.7359H130.791ZM123.377 28.5663H128.673C128.673 26.9229 127.613 25.8663 126.084 25.8663C124.554 25.8663 123.495 27.0403 123.377 28.5663Z" fill="white"/>
</g>
<path d="M48.5093 15.5H47.1426L47.1514 14.6255H48.5093C48.9048 14.6255 49.2358 14.5391 49.5024 14.3662C49.772 14.1934 49.9741 13.9458 50.1089 13.6235C50.2466 13.3013 50.3154 12.9175 50.3154 12.4722V12.125C50.3154 11.7793 50.2759 11.4731 50.1968 11.2065C50.1206 10.9399 50.0063 10.7158 49.854 10.5342C49.7046 10.3525 49.52 10.2148 49.3003 10.1211C49.0835 10.0273 48.833 9.98047 48.5488 9.98047H47.1162V9.10156H48.5488C48.9736 9.10156 49.3618 9.17334 49.7134 9.31689C50.0649 9.45752 50.3682 9.66113 50.623 9.92773C50.8809 10.1943 51.0786 10.5137 51.2163 10.8857C51.354 11.2578 51.4229 11.6738 51.4229 12.1338V12.4722C51.4229 12.9321 51.354 13.3481 51.2163 13.7202C51.0786 14.0923 50.8809 14.4116 50.623 14.6782C50.3652 14.9419 50.0576 15.1455 49.7002 15.2891C49.3457 15.4297 48.9487 15.5 48.5093 15.5ZM47.7534 9.10156V15.5H46.6504V9.10156H47.7534ZM54.9253 9.9541L53.0137 15.5H51.8579L54.2661 9.10156H55.0044L54.9253 9.9541ZM56.5249 15.5L54.6089 9.9541L54.5254 9.10156H55.2681L57.6851 15.5H56.5249ZM56.4326 13.127V14.0015H52.9521V13.127H56.4326ZM61.0908 9.10156H62.0752L63.9253 14.0366L65.771 9.10156H66.7554L64.312 15.5H63.5298L61.0908 9.10156ZM60.6426 9.10156H61.5786L61.7412 13.373V15.5H60.6426V9.10156ZM66.2676 9.10156H67.208V15.5H66.105V13.373L66.2676 9.10156ZM71.0884 9.9541L69.1768 15.5H68.021L70.4292 9.10156H71.1675L71.0884 9.9541ZM72.688 15.5L70.772 9.9541L70.6885 9.10156H71.4312L73.8481 15.5H72.688ZM72.5957 13.127V14.0015H69.1152V13.127H72.5957ZM76.3882 14.3311L78.0713 9.10156H79.2886L76.9946 15.5H76.1729L76.3882 14.3311ZM74.8325 9.10156L76.5024 14.3311L76.731 15.5H75.9048L73.6196 9.10156H74.8325ZM82.6372 13.5796V9.10156H83.7358V13.5796C83.7358 14.0044 83.645 14.3662 83.4634 14.665C83.2817 14.9639 83.0342 15.1924 82.7207 15.3506C82.4072 15.5088 82.0513 15.5879 81.6528 15.5879C81.2456 15.5879 80.8838 15.519 80.5674 15.3813C80.2539 15.2437 80.0078 15.0327 79.8291 14.7485C79.6504 14.4644 79.561 14.104 79.561 13.6675H80.6685C80.6685 13.9194 80.708 14.123 80.7871 14.2783C80.8691 14.4307 80.9834 14.542 81.1299 14.6123C81.2793 14.6797 81.4536 14.7134 81.6528 14.7134C81.8433 14.7134 82.0117 14.6709 82.1582 14.5859C82.3076 14.498 82.4248 14.3706 82.5098 14.2036C82.5947 14.0337 82.6372 13.8257 82.6372 13.5796ZM88.5962 9.10156H89.6948V13.3774C89.6948 13.8638 89.5894 14.271 89.3784 14.5991C89.1675 14.9272 88.8804 15.1748 88.5171 15.3418C88.1567 15.5059 87.7539 15.5879 87.3086 15.5879C86.8486 15.5879 86.4385 15.5059 86.0781 15.3418C85.7178 15.1748 85.4336 14.9272 85.2256 14.5991C85.0205 14.271 84.918 13.8638 84.918 13.3774V9.10156H86.0166V13.3774C86.0166 13.6851 86.0693 13.9385 86.1748 14.1377C86.2803 14.334 86.4297 14.479 86.623 14.5728C86.8164 14.6665 87.0449 14.7134 87.3086 14.7134C87.5723 14.7134 87.7993 14.6665 87.9897 14.5728C88.1831 14.479 88.3325 14.334 88.438 14.1377C88.5435 13.9385 88.5962 13.6851 88.5962 13.3774V9.10156ZM92.7534 15.5H91.3867L91.3955 14.6255H92.7534C93.1489 14.6255 93.48 14.5391 93.7466 14.3662C94.0161 14.1934 94.2183 13.9458 94.353 13.6235C94.4907 13.3013 94.5596 12.9175 94.5596 12.4722V12.125C94.5596 11.7793 94.52 11.4731 94.4409 11.2065C94.3647 10.9399 94.2505 10.7158 94.0981 10.5342C93.9487 10.3525 93.7642 10.2148 93.5444 10.1211C93.3276 10.0273 93.0771 9.98047 92.793 9.98047H91.3604V9.10156H92.793C93.2178 9.10156 93.606 9.17334 93.9575 9.31689C94.3091 9.45752 94.6123 9.66113 94.8672 9.92773C95.125 10.1943 95.3228 10.5137 95.4604 10.8857C95.5981 11.2578 95.667 11.6738 95.667 12.1338V12.4722C95.667 12.9321 95.5981 13.3481 95.4604 13.7202C95.3228 14.0923 95.125 14.4116 94.8672 14.6782C94.6094 14.9419 94.3018 15.1455 93.9443 15.2891C93.5898 15.4297 93.1929 15.5 92.7534 15.5ZM91.9976 9.10156V15.5H90.8945V9.10156H91.9976Z" fill="white"/>
<rect x="1.86556" y="1.08333" width="141.225" height="45.1667" rx="5.41667" stroke="#D8D8D8" stroke-opacity="0.2" stroke-width="2.16667"/>
<defs>
<clipPath id="clip0_11998_265999">
<rect x="13.7822" y="8.66699" width="117.391" height="30" rx="6.52174" fill="white"/>
</clipPath>
</defs>
</svg>
